<?xml version="1.0" encoding="utf-8"?>
<!-- Generator: Adobe Illustrator 15.0.2, SVG Export Plug-In . SVG Version: 6.00 Build 0)  -->
<!DOCTYPE svg PUBLIC "-//W3C//DTD SVG 1.1//EN" "http://www.w3.org/Graphics/SVG/1.1/DTD/svg11.dtd">
<svg version="1.1" id="Ebene_1" xmlns="http://www.w3.org/2000/svg" xmlns:xlink="http://www.w3.org/1999/xlink" x="0px" y="0px"
	 width="300px" height="400px" viewBox="0 0 300 400" enable-background="new 0 0 300 400" xml:space="preserve">
<path fill="#EDECE8" d="M40.303,43.483c-7.028,5.937-6.415,135.95-1.974,139.317c4.441,3.367,222.553,3.367,225.513,0
	c2.961-3.367,0.331-132.729-8.882-139.317C245.649,36.825,47.331,37.546,40.303,43.483z"/>
<line fill="none" x1="43.265" y1="45.077" x2="147.931" y2="151.481"/>
<polyline fill="none" stroke="#443F3C" stroke-width="11.1008" points="39.451,43.548 145.76,162.925 255.751,42.68 "/>
<path fill="#EDECE8" d="M39.303,238.982c-7.028,5.938-6.415,135.951-1.974,139.317c4.441,3.367,222.553,3.367,225.513,0
	c2.961-3.366,0.331-132.729-8.882-139.317C244.649,232.325,46.331,233.046,39.303,238.982z"/>
<line fill="none" x1="41.872" y1="239.475" x2="147.904" y2="347.268"/>
<path fill="#443F3C" stroke="#443F3C" stroke-width="11.2456" d="M38.009,237.927l107.695,120.933L257.13,237.046
	C201.962,262.084,82.292,259.443,38.009,237.927z"/>
</svg>
