<?xml version="1.0" encoding="utf-8"?>
<!-- Generator: Adobe Illustrator 15.0.2, SVG Export Plug-In . SVG Version: 6.00 Build 0)  -->
<!DOCTYPE svg PUBLIC "-//W3C//DTD SVG 1.1//EN" "http://www.w3.org/Graphics/SVG/1.1/DTD/svg11.dtd">
<svg version="1.1" id="Ebene_1" xmlns="http://www.w3.org/2000/svg" xmlns:xlink="http://www.w3.org/1999/xlink" x="0px" y="0px"
	 width="500px" height="160px" viewBox="0 0 500 160" enable-background="new 0 0 500 160" xml:space="preserve">
<g>
	<g>
		<path fill="#EDECE9" d="M22.354,156.666c20.737-13.179,39.938-28.852,58.167-45.281c13.162-11.862,25.52-24.856,35.044-38.191
			c10.068-14.095,20.214-28.918,26.385-45.202c2.29-6.042,4.688-13.583,2.229-19.945c-3.052-7.896-11.85-7.132-18.435-4.655
			c-11.568,4.351-20.935,15.483-29.153,24.405C85.384,39.963,76.523,54.863,70.072,70.033c-6.233,14.655-11.264,32.515-5.717,48.16
			c5.562,15.684,22.526,23.395,38.266,23.164c20.787-0.304,42.378-11.268,59-22.953c10.832-7.614,31.432-24.34,24.104-40.035
			c-1.271-2.723-4.767-3.161-7.426-2.301c-19.045,6.155-40.262,41.394-19.026,56.152c10.099,7.018,25.372,0.262,34.712-4.779
			c11.035-5.955,21.118-13.62,30.63-21.749c-3.387-1.05-6.773-2.099-10.16-3.148c-2.458,6.396-6.854,17.141-1.203,23.187
			c5.241,5.606,14.917,3.591,21.301,1.6c16.573-5.17,31.641-15.374,45.971-24.927c-3.128-1.408-6.256-2.816-9.384-4.225
			c-7.129,7.434-10.835,16.583-11.027,26.87c-0.056,2.98,3.171,4.132,5.758,3.736c15.975-2.442,27.315-13.478,41.199-20.639
			c-2.917-1.319-5.834-2.64-8.751-3.959c-4.016,6.824-8.281,17.03-0.277,22.695c7.224,5.112,18.858,2.643,26.592,0.375
			c13.423-3.937,43.162-18.281,33.24-36.735c-1.08-2.009-5.174-1.919-6.914-1.298c-9.845,3.514-18.691,9.979-20.949,20.734
			c-1.924,9.167,3.796,16.985,12.011,20.287c12.761,5.13,27.122-1.656,37.356-9.018c12.32-8.861,22.329-21.309,36.221-27.881
			c-2.917-1.319-5.834-2.64-8.751-3.959c-7.007,11.113-4.623,23.005,7.66,28.708c-0.103-1.706-0.205-3.412-0.307-5.118
			c-3.632,3.893-6.044,8.994-10.392,12.184c-5.678,4.165,0.564,7.657,5.206,6.602c27.162-6.179,49.528-25.725,72.123-40.871
			c-3.515-0.673-7.029-1.347-10.545-2.021c-2.324,10.396,0.073,20.017,0.111,30.387c0.015,3.752-0.903,6.238-3.223,7.856
			c-4.876,3.402-13.428,3.884-19.422,4.554c-2.668,0.299-6.598,1.786-7.066,4.891c-0.463,3.069,3.494,3.989,5.758,3.736
			c12.461-1.394,32.436-3.408,36.334-18.141c1.246-4.708,0.099-10.117-0.429-14.856c-0.733-6.598-0.695-13.074,0.761-19.581
			c1.221-5.459-8.427-3.44-10.545-2.021c-20.618,13.82-41.225,32.422-66.004,38.059c1.735,2.201,3.471,4.401,5.206,6.602
			c5.295-3.884,8.238-9.42,12.628-14.125c1.302-1.396,1.857-4.113-0.307-5.118c-9.408-4.367-10.877-12.086-5.494-20.624
			c3.216-5.101-6.343-5.098-8.751-3.959c-10.828,5.123-19.658,13.174-28.589,20.987c-7.257,6.349-16.584,15.641-26.932,15.585
			c-6.613-0.035-11.239-4.299-12.058-10.78c-0.843-6.672,4.597-12.973,10.533-15.091c-2.305-0.433-4.609-0.865-6.914-1.298
			c5.947,11.062-15.646,20.755-23.006,23.102c-3.945,1.258-5.952,1.673-9.607,1.926c-1.718,0.118-4.172-0.204-5.287-0.833
			c-1.244-0.701-2.071-2.178-2.007-4.163c0.125-3.85,2.191-7.451,4.089-10.677c2.997-5.095-6.213-5.268-8.751-3.959
			c-5.88,3.033-11.379,6.664-16.892,10.307c-5.322,3.516-11.104,7.536-17.552,8.521c1.919,1.245,3.838,2.491,5.758,3.736
			c0.161-8.656,2.654-16.151,8.705-22.462c1.485-1.549,1.658-3.886-0.307-5.118c-2.723-1.707-6.588-0.766-9.077,0.894
			c-11.317,7.544-22.846,14.995-35.37,20.397c-2.889,1.246-5.437,2.136-8.694,2.842c-1.111,0.241-2.611,0.181-3.109-0.099
			c-0.877-0.491-1.608-2.309-1.587-4.437c0.042-4.193,1.527-8.405,3.012-12.267c2.252-5.858-7.25-5.636-10.16-3.148
			c-6.95,5.939-14.195,11.533-21.857,16.527c-5.942,3.874-16.042,10.979-23.644,8.985c-9.558-2.507-7.928-15.918-5.313-22.621
			c1.764-4.521,4.372-8.749,7.421-12.508c1.367-1.686,2.883-3.345,4.546-4.743c0.667-0.56,1.379-1.06,2.095-1.553
			c0.107-0.074,1.949-0.864,0.847-0.509c-2.476-0.767-4.951-1.534-7.426-2.301c5.854,12.536-11.125,25.312-19.663,31.435
			c-13.644,9.784-30.692,18.228-47.669,19.444c-15.167,1.088-27.935-10.092-30.355-24.647C72.583,91.49,80.242,73.616,87.727,59.35
			c6.48-12.351,14.588-22.905,23.977-33.104c4.535-4.926,9.406-9.604,14.886-13.47c1.243-0.876,2.505-1.617,3.878-2.261
			c0.977-0.458,1.422-0.048,0.037-0.379c1.042,0.249,1.786,3.857,1.806,5.329c0.1,7.677-3.8,15.39-7.151,22.063
			c-4.182,8.33-9.176,16.256-14.341,24.004c-8.629,12.944-17.38,24.083-28.623,35.157c-20.668,20.355-43.61,39.212-68.108,54.782
			c-2.133,1.355-3.389,4.473-0.812,6.089C16.039,159.292,19.816,158.279,22.354,156.666L22.354,156.666z"/>
	</g>
</g>
<g>
	<path d="M248.104,68.434c-4.934,0-1.645-1.644,1.645-3.289"/>
	<g>
		<path fill="#EDECE9" d="M252.189,65.713c-0.415-0.002-0.828-0.014-1.241-0.048c-0.716-0.059,1.163,0.206,0.531,0.086
			c-0.136-0.026-0.267-0.067-0.395-0.119c0.259,0.114,0.519,0.228,0.777,0.341c-0.104-0.05-0.189-0.102-0.26-0.195
			c0.127,0.17,0.254,0.34,0.38,0.509c-0.033-0.065-0.043-0.116-0.037-0.189c-0.025,0.21-0.05,0.42-0.074,0.631
			c0.02-0.082,0.052-0.146,0.098-0.217c-0.168,0.228-0.336,0.456-0.504,0.684c0.048-0.063,0.099-0.121,0.153-0.179
			c0.507-0.531-0.979,0.743-0.487,0.375c0.286-0.214,0.599-0.396,0.907-0.576c-1.95,1.133-0.369,0.224,0.117-0.027
			c0.43-0.222,0.863-0.438,1.296-0.654c0.888-0.444,2.137-1.085,2.576-2.064c0.372-0.829-0.407-1.3-1.083-1.481
			c-1.296-0.346-2.765-0.19-4.062,0.032c-1.657,0.283-3.331,0.774-4.838,1.528c-0.831,0.416-1.664,0.83-2.476,1.285
			c-1.224,0.686-2.577,1.387-3.562,2.418c-0.665,0.697-1.26,1.852-0.165,2.508c1.223,0.732,2.789,0.783,4.175,0.791
			c3.076,0.018,6.387-0.678,8.984-2.407c0.545-0.363,1.684-1.162,1.455-2.015C254.235,65.903,252.834,65.717,252.189,65.713
			L252.189,65.713z"/>
	</g>
</g>
</svg>
