<?xml version="1.0" encoding="utf-8"?>
<!-- Generator: Adobe Illustrator 15.0.2, SVG Export Plug-In . SVG Version: 6.00 Build 0)  -->
<!DOCTYPE svg PUBLIC "-//W3C//DTD SVG 1.1//EN" "http://www.w3.org/Graphics/SVG/1.1/DTD/svg11.dtd">
<svg version="1.1" id="Ebene_1" xmlns="http://www.w3.org/2000/svg" xmlns:xlink="http://www.w3.org/1999/xlink" x="0px" y="0px"
	 width="300px" height="200px" viewBox="0 0 300 200" enable-background="new 0 0 300 200" xml:space="preserve">
<path fill="#EDECE8" d="M3.938,196.724c5.761,4.368,288.695,4.368,292.535,0s8.961-105.46-11.523-126.677
	c-15.049-15.587-60.811-18.721-60.811-18.721s-26.244-43.682-32.006-48.05s-58.891-4.368-66.573,0
	c-7.681,4.368-30.085,47.426-30.085,47.426S14.499,56.006,6.498,63.807C-1.504,71.606-1.824,192.355,3.938,196.724z"/>
<path fill="#EDECE8" d="M28.901,31.357c-6.4,4.368-3.2,21.216-3.2,21.216c7.042-5.617,66.573-7.488,66.573-7.488
	s1.28-11.856-3.201-14.977C84.592,26.989,35.303,26.989,28.901,31.357z"/>
<path fill="none" stroke="#000000" stroke-width="12.6405" d="M226.699,117.784c0,33-30.236,65.836-67.531,65.836
	c-37.299,0-67.534-29.476-67.534-65.836c0-36.358,30.234-65.834,67.534-65.834C196.463,51.95,226.699,81.426,226.699,117.784z"/>
</svg>
