<?xml version="1.0" encoding="utf-8"?>
<!-- Generator: Adobe Illustrator 15.0.2, SVG Export Plug-In . SVG Version: 6.00 Build 0)  -->
<!DOCTYPE svg PUBLIC "-//W3C//DTD SVG 1.1//EN" "http://www.w3.org/Graphics/SVG/1.1/DTD/svg11.dtd">
<svg version="1.1" id="Ebene_1" xmlns="http://www.w3.org/2000/svg" xmlns:xlink="http://www.w3.org/1999/xlink" x="0px" y="0px"
	 width="300px" height="400px" viewBox="0 0 300 400" enable-background="new 0 0 300 400" xml:space="preserve">
<path fill="#EDECE8" d="M28.281,180.603c4.801,3.64,240.581,3.64,243.78,0c3.2-3.64,7.468-87.884-9.603-105.564
	c-12.541-12.99-50.676-15.601-50.676-15.601s-21.87-36.401-26.672-40.042c-4.801-3.64-49.075-3.64-55.477,0
	c-6.4,3.64-25.071,39.522-25.071,39.522s-67.48,4.419-74.148,10.92C23.747,76.338,23.48,176.963,28.281,180.603z"/>
<path fill="#EDECE8" d="M49.084,42.798c-5.333,3.64-2.667,17.68-2.667,17.68c5.868-4.681,55.477-6.24,55.477-6.24
	s1.067-9.88-2.667-12.48C95.493,39.157,54.419,39.157,49.084,42.798z"/>
<path fill="none" stroke="#443F3C" stroke-width="10.5337" d="M213.916,114.82c0,27.5-25.197,54.863-56.276,54.863
	c-31.083,0-56.278-24.563-56.278-54.863c0-30.299,25.195-54.862,56.278-54.862C188.719,59.958,213.916,84.521,213.916,114.82z"/>
<path fill="#EDECE8" d="M28.282,380.604c4.8,3.64,240.579,3.64,243.779,0c3.2-3.641,7.468-87.884-9.603-105.564
	c-12.541-12.99-50.676-15.601-50.676-15.601s-21.87-36.401-26.672-40.042c-4.801-3.64-49.075-3.64-55.477,0
	c-6.4,3.641-25.071,39.521-25.071,39.521s-67.479,4.42-74.147,10.921C23.748,276.338,23.481,376.963,28.282,380.604z"/>
<path fill="#EDECE8" d="M49.085,242.798c-5.334,3.64-2.667,17.681-2.667,17.681c5.868-4.681,55.478-6.24,55.478-6.24
	s1.067-9.881-2.668-12.48C95.495,239.157,54.42,239.157,49.085,242.798z"/>
<path fill="#443F3C" stroke="#443F3C" stroke-width="10.5337" d="M213.917,314.82c0,27.5-25.197,54.863-56.276,54.863
	c-31.083,0-56.278-24.563-56.278-54.863c0-30.299,25.195-54.862,56.278-54.862C188.72,259.958,213.917,284.521,213.917,314.82z"/>
</svg>
