<?xml version="1.0" encoding="utf-8"?>
<!-- Generator: Adobe Illustrator 15.0.2, SVG Export Plug-In . SVG Version: 6.00 Build 0)  -->
<!DOCTYPE svg PUBLIC "-//W3C//DTD SVG 1.1//EN" "http://www.w3.org/Graphics/SVG/1.1/DTD/svg11.dtd">
<svg version="1.1" id="Ebene_1" xmlns="http://www.w3.org/2000/svg" xmlns:xlink="http://www.w3.org/1999/xlink" x="0px" y="0px"
	 width="200px" height="1000px" viewBox="0 0 200 1000" enable-background="new 0 0 200 1000" xml:space="preserve">
<path d="M200,1c15.69,20.891,25,46.861,25,75c0,69.034-55.965,125-125,125C30.964,201-25,145.034-25,76c0-28.14,9.308-54.108,25-75"
	/>
<rect x="2" y="21" fill="none" width="197.334" height="160"/>
<text transform="matrix(1 0 0 1 78.9873 139.6479)" fill="#FFFFFF" font-family="'Impact'" font-size="150">f</text>
<path fill="#3B5999" d="M200,221c15.69,20.891,25,46.861,25,75c0,69.034-55.965,125-125,125c-69.035,0-125-55.966-125-125
	c0-28.14,9.308-54.108,25-75"/>
<rect x="2" y="241" fill="none" width="197.334" height="160"/>
<text transform="matrix(1 0 0 1 78.9873 359.6479)" fill="#FFFFFF" font-family="'Impact'" font-size="150">f</text>
<path d="M200,440c15.69,20.891,25,46.861,25,75c0,69.034-55.965,125-125,125c-69.035,0-125-55.966-125-125
	c0-28.141,9.308-54.108,25-75"/>
<rect x="2" y="450" fill="none" width="197.334" height="160"/>
<text transform="matrix(1 0 0 1 68.1475 568.6484)" fill="#FFFFFF" font-family="'Impact'" font-size="150">x</text>
<path fill="#046466" d="M200,661c15.69,20.891,25,46.861,25,75c0,69.034-55.965,125-125,125c-69.035,0-125-55.966-125-125
	c0-28.141,9.308-54.108,25-75"/>
<rect x="2" y="671" fill="none" width="197.334" height="160"/>
<text transform="matrix(1 0 0 1 68.1475 789.6484)" fill="#FFFFFF" font-family="'Impact'" font-size="150">x</text>
</svg>
