<?xml version="1.0" encoding="utf-8"?>
<!-- Generator: Adobe Illustrator 15.0.0, SVG Export Plug-In . SVG Version: 6.00 Build 0)  -->
<!DOCTYPE svg PUBLIC "-//W3C//DTD SVG 1.1//EN" "http://www.w3.org/Graphics/SVG/1.1/DTD/svg11.dtd">
<svg version="1.1" id="Ebene_1" xmlns="http://www.w3.org/2000/svg" xmlns:xlink="http://www.w3.org/1999/xlink" x="0px" y="0px"
	 width="500px" height="500px" viewBox="0 0 500 500" enable-background="new 0 0 500 500" xml:space="preserve">
<path fill="none" stroke="#BAB9B4" stroke-width="25" stroke-miterlimit="10" d="M79.118,191.561c0,0,7.382,28.314,46.141,38.588
	l253.356,35.627c37.914,1.043,56.053-25.481,56.053-25.481"/>
<path fill="none" stroke="#BAB9B4" stroke-width="10" stroke-miterlimit="10" d="M131.044,241.709c0,0,0.143,6.611,6.773,12.824
	l34.692,4.879c6.771,1.408,13.201-10.016,13.201-10.016"/>
<path fill="none" stroke="#BAB9B4" stroke-width="10" stroke-miterlimit="10" d="M314.639,267.526c0,0,0.143,6.61,6.772,12.823
	l34.692,4.879c6.771,1.41,13.201-10.016,13.201-10.016"/>
<path fill="none" stroke="#BAB9B4" stroke-width="5" stroke-linecap="round" stroke-miterlimit="10" d="M128.478,287.378
	c0,0,30.288,10.576,48.817,0.531"/>
<path fill="none" stroke="#BAB9B4" stroke-width="5" stroke-linecap="round" stroke-miterlimit="10" d="M118.824,306.173
	c0,0,32.172,17.132,67.713,0.736"/>
<path fill="none" stroke="#BAB9B4" stroke-width="5" stroke-linecap="round" stroke-miterlimit="10" d="M319.871,302.596
	c0,0,20.497,6.899,32.911-0.011"/>
<path fill="none" stroke="#BAB9B4" stroke-width="5" stroke-linecap="round" stroke-miterlimit="10" d="M313.507,315.338
	c0,0,21.816,11.305,45.648-0.017"/>
</svg>
