<?xml version="1.0" encoding="utf-8"?>
<!-- Generator: Adobe Illustrator 15.0.2, SVG Export Plug-In . SVG Version: 6.00 Build 0)  -->
<!DOCTYPE svg PUBLIC "-//W3C//DTD SVG 1.1//EN" "http://www.w3.org/Graphics/SVG/1.1/DTD/svg11.dtd">
<svg version="1.1" id="Ebene_2" xmlns="http://www.w3.org/2000/svg" xmlns:xlink="http://www.w3.org/1999/xlink" x="0px" y="0px"
	 width="200px" height="1000px" viewBox="0 0 200 1000" enable-background="new 0 0 200 1000" xml:space="preserve">
<circle fill="#443F3C" cx="100" cy="100" r="100"/>
<circle fill="#3B5999" cx="100" cy="300" r="100"/>
<circle fill="#443F3C" cx="100" cy="500" r="100"/>
<circle fill="#046466" cx="100" cy="700" r="100"/>
<g>
	<path fill="#FFFFFF" d="M121.35,40.71v15.015c-6.104,0-9.705,0.282-10.803,0.842c-1.1,0.562-1.648,2.161-1.648,4.797v3.076h12.451
		v15.381h-7.031v79.468H84.729V79.822H78.65V64.441h6.079c0-6.396,0.22-10.668,0.659-12.817c0.439-2.148,1.525-4.065,3.259-5.75
		c1.732-1.685,4.162-2.966,7.288-3.845c3.124-0.879,7.983-1.318,14.575-1.318H121.35z"/>
</g>
<g>
	<path fill="#FFFFFF" d="M121.35,240.71v15.015c-6.104,0-9.705,0.282-10.803,0.842c-1.1,0.562-1.648,2.161-1.648,4.797v3.076h12.451
		v15.381h-7.031v79.468H84.729v-79.468H78.65v-15.381h6.079c0-6.396,0.22-10.668,0.659-12.817c0.439-2.148,1.525-4.065,3.259-5.75
		c1.732-1.685,4.162-2.966,7.288-3.845c3.124-0.879,7.983-1.318,14.575-1.318H121.35z"/>
</g>
<g>
	<path fill="#FFFFFF" d="M130.725,451.403l-11.791,46.436l14.281,50.758h-28.766c-2.855-12.821-5.024-23.857-6.5-33.105
		c-1.971,11.549-4.113,22.584-6.428,33.105H66.785l12.744-50.758l-12.744-46.436h24.737c3.99,19.867,6.132,31.146,6.428,33.838
		c2.855-16.588,5.023-27.867,6.5-33.838H130.725z"/>
</g>
<g>
	<path fill="#FFFFFF" d="M130.725,651.403l-11.791,46.436l14.281,50.758h-28.766c-2.855-12.821-5.024-23.857-6.5-33.105
		c-1.971,11.549-4.113,22.584-6.428,33.105H66.785l12.744-50.758l-12.744-46.436h24.737c3.99,19.867,6.132,31.146,6.428,33.838
		c2.855-16.588,5.023-27.867,6.5-33.838H130.725z"/>
</g>
</svg>
