<?xml version="1.0" encoding="utf-8"?>
<!-- Generator: Adobe Illustrator 16.0.0, SVG Export Plug-In . SVG Version: 6.00 Build 0)  -->
<!DOCTYPE svg PUBLIC "-//W3C//DTD SVG 1.1//EN" "http://www.w3.org/Graphics/SVG/1.1/DTD/svg11.dtd">
<svg version="1.1" id="Layer_1" xmlns="http://www.w3.org/2000/svg" xmlns:xlink="http://www.w3.org/1999/xlink" x="0px" y="0px"
	 width="1045.73438px" height="497.46826px" viewBox="0 0 1045.73438 497.46826" enable-background="new 0 0 1045.73438 497.46826"
	 xml:space="preserve">
<path fill="#222" d="M134.68066,81.62646L115.1416,192.55469l1.39551,1.39551
	c13.48828-13.48438,27.91357-23.13184,43.26563-28.95313c15.35205-5.81006,32.79785-8.7207,52.33691-8.7207
	c24.18457,0,45.58789,4.42578,64.2002,13.25586c18.60156,8.84033,34.30273,20.70068,47.10352,35.58057
	c12.79004,14.89063,22.55957,32.44092,29.30859,52.67383c6.73828,20.23145,10.11914,41.75,10.11914,64.5332
	c0,25.11523-4.88477,48.4873-14.6543,70.11523c-9.76953,21.62695-22.91992,40.35547-39.42773,56.16211
	c-16.51904,15.81641-35.70898,28.02539-57.5708,36.62695c-21.87256,8.60156-45.12988,12.66602-69.78271,12.20898
	c-23.72656,0-46.40576-3.14063-68.03857-9.41797c-21.63281-6.2793-40.82275-15.92773-57.5708-28.95313
	c-16.74805-13.01563-30.12646-29.18164-40.125-48.48828C5.69141,391.27881,0.45801,368.8335,0,343.24951h99.0918
	c2.32227,22.3252,10.69629,40.11523,25.12158,53.37109c14.41455,13.25586,32.79785,19.88281,55.12842,19.88281
	c13.01904,0,24.77295-2.66992,35.24023-8.02246c10.46777-5.3418,19.2998-12.31836,26.51758-20.93066
	c7.20703-8.59961,12.79004-18.5957,16.74805-29.99805c3.94727-11.39258,5.93164-23.13281,5.93164-35.23242
	c0-12.55859-1.86475-24.41797-5.58301-35.58008c-3.72852-11.16406-9.31152-20.93066-16.74805-29.30273
	c-7.44678-8.37158-16.28955-14.87939-26.51709-19.53467c-10.23828-4.64355-22.10156-6.97656-35.58936-6.97656
	c-17.68555,0-32.1001,3.13965-43.26514,9.41895c-11.16553,6.27881-21.63281,16.1665-31.40234,29.65088H15.35205L63.50244,0
	h272.85107v81.62646H134.68066z"/>
<path fill="#222" d="M562.58496,484.97217c17.1123-6.13281,32.95313-14.20117,47.49121-24.22461
	c14.53809-10.00781,28.25879-21.63477,41.19141-34.88281c12.91797-13.23242,26.16797-26.96484,39.7373-41.18164
	c12.2666,14.2168,25.19922,27.94922,38.76855,41.18164c13.56836,13.24805,27.93945,24.875,43.12891,34.88281
	c15.1748,10.02344,31.5,18.0918,48.94531,24.22461c17.44531,6.14648,36.17871,9.20508,56.21387,9.20508
	c25.83496,0,49.2627-4.67773,70.26758-14.05078c20.98926-9.35547,38.60156-22.28516,52.82129-38.75781
	c14.20508-16.47266,25.19922-35.68555,32.95313-57.6543c7.75391-21.95313,11.63086-45.54297,11.63086-70.73633
	s-3.87695-48.44727-11.63086-69.76514s-18.74805-39.87988-32.95313-55.71631
	c-14.21973-15.82129-31.66602-28.25146-52.33691-37.30566c-20.68652-9.03857-43.94727-13.56543-69.78223-13.56543
	c-20.68652,0-39.9043,3.23975-57.66797,9.68994c-17.7793,6.46484-34.25586,15.01904-49.42969,25.67773
	c-15.18945,10.65869-29.40918,23.104-42.64453,37.30566c-13.25195,14.21631-26.01758,28.75098-38.28418,43.60303
	c-12.93262-15.50293-26.0166-30.18896-39.25293-44.08789c-13.25098-13.8833-27.4707-26.16211-42.64453-36.8208
	c-15.18945-10.65869-31.66602-19.21289-49.42969-25.67773c-17.7793-6.4502-37.31445-9.68994-58.63672-9.68994
	c-25.85156,0-49.11133,4.69336-69.7832,14.05029c-20.68652,9.37158-38.13281,21.96826-52.33789,37.79004
	c-14.21875,15.83643-25.04688,34.56494-32.46777,56.2002c-7.43555,21.6499-11.14551,45.05811-11.14551,70.25146
	c0,25.19238,3.87695,48.78125,11.63086,70.73438c7.75293,21.96875,19.05078,40.86328,33.92188,56.68555
	c14.85547,15.83594,32.61914,28.43359,53.30566,37.78906c20.67188,9.37305,44.25098,14.05078,70.75293,14.05078
	C526.24023,494.17725,545.45703,491.11865,562.58496,484.97217z M447.73438,374.0249
	c-13.56934-14.85352-20.35352-33.91504-20.35352-57.16992c0-21.31836,6.61719-40.53125,19.86914-57.6543
	c13.23535-17.1084,31.16602-25.67773,53.79102-25.67773c12.26563,0,24.54785,2.75537,36.8291,8.23633
	c12.2666,5.49561,24.06348,12.44531,35.37598,20.83203c11.29785,8.4043,22.125,17.60938,32.46875,27.61719
	c10.32813,10.02148,19.38477,19.22754,27.1377,27.61523c-7.75293,9.05371-16.47656,18.25977-26.16895,27.61523
	c-9.69141,9.37207-20.03516,17.77539-31.01367,25.19336c-10.99512,7.43359-22.625,13.56641-34.89258,18.41113
	c-12.28125,4.84473-24.5625,7.2666-36.8291,7.2666C480.03613,396.31006,461.30273,388.89209,447.73438,374.0249z
	 M841.7168,389.52783c-11.96387-4.5127-23.42773-10.49219-34.40723-17.92676c-10.99414-7.41797-21.32227-15.82031-31.01465-25.19336
	c-9.69141-9.35547-18.74805-18.89453-27.1377-28.58398c7.75391-8.3877,16.47656-17.59375,26.16895-27.61523
	c9.69141-10.00781,19.86816-19.21289,30.5293-27.61719c10.66211-8.38672,21.95898-15.33643,33.92285-20.83203
	c11.94824-5.48096,24.38184-8.23633,37.31445-8.23633c23.89648,0,42.7959,8.08496,56.69824,24.22461
	c13.88672,16.1543,20.83789,35.5332,20.83789,58.13867c0,22.61914-6.4668,41.66602-19.38379,57.16895
	C922.3125,388.55811,903.89648,396.31006,880,396.31006C866.43164,396.31006,853.66504,394.0542,841.7168,389.52783z"/>
</svg>
