<?xml version="1.0" encoding="utf-8"?>
<!-- Generator: Adobe Illustrator 15.0.2, SVG Export Plug-In  -->
<!DOCTYPE svg PUBLIC "-//W3C//DTD SVG 1.1//EN" "http://www.w3.org/Graphics/SVG/1.1/DTD/svg11.dtd" [
	<!ENTITY ns_flows "http://ns.adobe.com/Flows/1.0/">
]>
<svg version="1.1"
	 xmlns="http://www.w3.org/2000/svg" xmlns:xlink="http://www.w3.org/1999/xlink" xmlns:a="http://ns.adobe.com/AdobeSVGViewerExtensions/3.0/"
	 x="0px" y="0px" width="1000px" height="330px" viewBox="-10.118 -3.744 1000 330"
	 enable-background="new -10.118 -3.744 1000 330" xml:space="preserve">
<defs>
</defs>
<g>
	<g>
		<path fill="#443F3C" d="M21.75,320.776c41.907-26.547,80.745-58.189,117.64-91.257c16.326-14.633,32.266-29.773,47.136-45.894
			c5.53-5.994,10.888-12.165,15.822-18.661c1.285-1.692,2.516-3.427,3.757-5.152c1.062-1.477-1.681,2.33-0.55,0.764
			c0.297-0.412,0.595-0.823,0.893-1.235c1.992-2.755,3.983-5.512,5.967-8.274c20.045-27.914,39.876-56.938,53.521-88.609
			c5.866-13.615,11.664-29.285,9.066-44.352c-1.03-5.974-4.579-12.151-9.962-15.164c-8.81-4.932-19.305-2.876-28.252,0.437
			c-15.55,5.758-28.888,18.113-40.646,29.407c-6.737,6.471-13.227,13.33-19.617,20.147c-22.659,24.176-40.688,53.856-54.093,84.036
			c-13.39,30.147-24.63,66.51-15.411,99.45c9.027,32.253,42.433,52.477,74.935,52.734c38.3,0.305,75.953-16.079,108.452-35.045
			c16.111-9.401,31.284-20.519,44.751-33.444c11-10.558,20.63-22.895,25.445-37.491c2.566-7.778,2.533-16.844-1.063-24.288
			c-2.735-5.662-9.754-6.461-15.355-4.758c-18.047,5.487-31.384,20.609-41.538,35.804c-10.435,15.615-18.096,35.139-15.251,54.157
			c2.721,18.185,19.114,31.207,37.046,31.748c21.553,0.649,41.773-9.399,59.956-19.916c19.839-11.475,38.166-25.663,55.551-40.544
			c-7.002-2.17-14.005-4.34-21.008-6.51c-5.188,13.344-12.06,30.875-4.807,44.716c5.66,10.801,20.999,11.588,31.508,9.971
			c30.651-4.717,59.302-22.812,85.166-38.925c8.345-5.198,16.561-10.599,24.74-16.052c-6.468-2.912-12.936-5.823-19.403-8.735
			c-14.748,15.051-22.609,34.527-22.8,55.558c-0.057,6.208,6.502,8.475,11.903,7.725c33.063-4.589,56.571-28.141,85.185-42.671
			c-6.031-2.729-12.063-5.457-18.094-8.186c-5.999,10.094-12.534,23.176-9.322,35.269c2.877,10.83,13.82,15.111,23.778,16.818
			c12.037,2.064,25.213-0.377,36.837-3.497c13.889-3.727,26.984-9.607,39.388-16.807c19.871-11.536,46.378-34.883,32.46-60.039
			c-2.302-4.16-10.637-3.95-14.296-2.684c-18.759,6.494-35.792,18.425-42.068,38.047c-4.612,14.418-0.418,29.655,10.917,39.575
			c15.487,13.554,41.289,12.473,59.4,5.703c24.381-9.112,43.951-27.578,63.204-44.43c13.203-11.555,27.361-23.489,42.196-30.37
			c-6.031-2.729-12.063-5.457-18.094-8.186c-6.549,10.085-10.485,21.955-7.899,33.983c2.854,13.271,14.679,21.348,26.241,26.498
			c-1.045-3.902-2.091-7.805-3.137-11.707c-7.616,7.898-12.812,19.114-21.488,25.192c-3.338,2.338-6.644,7.065-3.531,10.966
			c3.317,4.159,9.73,3.691,14.295,2.684c28.433-6.274,54.496-21.04,78.882-36.443c23.999-15.16,46.657-32.295,70.246-48.063
			c-7.268-1.393-14.535-2.785-21.803-4.178c-2.902,12.638-3.062,25.396-2.009,38.268c0.415,5.074,1.063,10.125,1.608,15.186
			c0.245,2.262,0.453,4.527,0.601,6.798c-0.165-2.537,0.018,0.943,0.026,1.502c0.02,1.216-0.018,2.431-0.082,3.645
			c-0.103,1.909-0.377,3.803-0.797,5.667c-0.085,0.359-0.177,0.717-0.276,1.073c-0.526,1.953,0.803-2.137,0.106-0.246
			c-0.316,0.858-0.714,1.685-1.132,2.497c-0.388,0.753-2.307,3.501-0.196,0.608c-0.577,0.791-1.235,1.52-1.907,2.229
			c-0.284,0.293-0.576,0.578-0.874,0.857c-1.714,1.641,2.273-1.866,0.36-0.349c-0.902,0.716-1.867,1.349-2.838,1.966
			c-1.156,0.695-0.828,0.512,0.984-0.553c-0.689,0.384-1.398,0.731-2.106,1.08c-1.281,0.63-2.603,1.176-3.927,1.708
			c-1.396,0.53-1.131,0.442,0.798-0.263c-0.933,0.332-1.877,0.629-2.819,0.928c-1.707,0.54-3.438,1.004-5.17,1.455
			c-1.917,0.499-3.852,0.926-5.787,1.342c-0.83,0.174-1.662,0.343-2.495,0.505c-4.25,0.844,2.729-0.442-1.737,0.316
			c-5.611,0.954-11.265,1.649-16.921,2.269c-5.517,0.603-13.644,3.702-14.61,10.111c-0.959,6.355,7.224,8.237,11.903,7.725
			c25.679-2.809,70.23-7.521,75.589-39.854c1.648-9.947-0.531-20.548-1.574-30.462c-0.733-6.964-0.976-10.097-0.856-17.072
			c0.123-7.184,1.045-14.325,2.652-21.323c0.819-3.566-2.586-6.235-5.536-7.149c-5.449-1.688-11.64-0.122-16.267,2.972
			c-22.674,15.156-44.518,31.513-67.455,46.282c-11.538,7.43-22.773,14.04-35.07,20.072c-5.935,2.911-12.008,5.53-18.19,7.866
			c2.254-0.852-2.23,0.758-2.12,0.72c-1.366,0.461-2.744,0.882-4.123,1.301c-3.134,0.955-6.314,1.745-9.513,2.451
			c3.588,4.55,7.176,9.1,10.764,13.649c11.16-7.817,16.891-19.642,26.111-29.206c4.542-4.71,2.024-9.408-3.137-11.707
			c-7.393-3.292-13.354-8.992-15.409-16.853c-2.27-8.679,1.921-17.535,6.552-24.666c1.909-2.939,0.527-6.621-2.239-8.356
			c-4.621-2.897-11.16-2.007-15.854,0.171c-23.651,10.969-42.555,29.128-62.066,45.957c-9.463,8.161-19.205,16.051-29.894,22.564
			c-1.267,0.772-3.338,1.844-5.795,3.047c-1.249,0.611-2.524,1.165-3.801,1.718c-0.202,0.088-4.3,1.324-1.764,0.641
			c-1.29,0.348-2.595,0.634-3.899,0.917c-4.129,0.899,2.629-0.365-1.399,0.223c-1.181,0.173-2.369,0.281-3.557,0.389
			c-0.552,0.05-5.34,0.146-2.237,0.173c-2.066-0.019-4.125-0.225-6.17-0.509c-3.229-0.448,2.308,0.559-0.774-0.164
			c-0.897-0.211-1.778-0.484-2.657-0.759c-0.85-0.266-1.679-0.593-2.505-0.921c2.336,0.926-0.214-0.138-0.6-0.338
			c-1.694-0.883-3.268-1.979-4.768-3.155c-2.066-1.621,1.367,1.326-0.489-0.484c-0.556-0.541-1.066-1.126-1.575-1.71
			c-1.006-1.152-1.869-2.421-2.677-3.717c-0.166-0.266-1.294-2.488-0.373-0.596c-0.331-0.681-0.609-1.387-0.887-2.09
			c-0.651-1.651-1.09-3.379-1.443-5.114c-0.767-3.768-0.653-3.566-0.205-7.741c0.171-1.601,0.508-3.18,0.895-4.74
			c0.067-0.27,0.877-2.854,0.174-0.813c0.364-1.059,0.811-2.088,1.267-3.109c0.704-1.578,1.563-3.081,2.465-4.552
			c0.187-0.305,1.881-2.69,0.416-0.706c0.542-0.733,1.13-1.432,1.717-2.13c1.215-1.443,2.565-2.767,3.95-4.046
			c-2.087,1.928,0.366-0.237,0.708-0.504c1.069-0.836,2.197-1.594,3.33-2.34c0.587-0.378,1.181-0.745,1.782-1.1
			c-2.687,1.621,0.468-0.159,0.885-0.368c1.001-0.501,2.029-0.944,3.057-1.388c0.449-0.194,4.035-1.482,0.938-0.41
			c-4.765-0.895-9.53-1.789-14.296-2.684c0.975,1.762-0.889-1.895-0.056-0.106c0.227,0.485,0.418,0.985,0.608,1.484
			c0.37,0.968,0.634,1.973,0.857,2.982c0.166,0.748,0.441,4.213,0.301,1.17c0.054,1.17-0.033,2.342-0.171,3.502
			c-0.12,1.012-0.342,2.01-0.591,2.996c-0.762,3.015,0.517-1.092-0.383,1.146c-0.903,2.247-2.129,4.356-3.467,6.368
			c-1.212,1.824,1.554-2.08,0.231-0.3c-0.361,0.486-0.74,0.959-1.119,1.432c-0.779,0.974-1.608,1.905-2.45,2.824
			c-0.874,0.954-1.791,1.867-2.719,2.769c-0.476,0.462-0.964,0.91-1.452,1.359c-2.4,2.208,1.381-1.146-0.237,0.221
			c-4.579,3.87-9.588,7.222-14.749,10.259c3.778-2.224-0.769,0.398-1.673,0.883c-1.334,0.714-2.686,1.396-4.041,2.065
			c-2.947,1.455-5.956,2.783-8.996,4.031c-1.395,0.572-2.802,1.111-4.214,1.639c-2.659,0.993,3.269-1.155,0.598-0.224
			c-0.701,0.245-1.405,0.479-2.11,0.711c-2.984,0.987-6.012,1.845-9.062,2.604c-1.358,0.339-2.726,0.639-4.095,0.925
			c-4.387,0.917,2.26-0.329-1.097,0.204c-2.729,0.433-5.481,0.71-8.24,0.852c-0.601,0.03-1.203,0.044-1.805,0.058
			c-2.387,0.053,3.377,0.031,1.022-0.014c-1.119-0.021-2.237-0.098-3.353-0.196c-1.056-0.095-2.104-0.248-3.148-0.427
			c4.383,0.752,0.259-0.02-0.833-0.357c-0.739-0.229-1.459-0.512-2.172-0.811c3.516,1.477,0.971,0.401,0.151-0.081
			c-0.607-0.358-1.179-0.774-1.734-1.206c-0.813-0.632,1.818,1.848,0.063-0.072c-0.46-0.503-0.858-1.059-1.237-1.624
			c-1.267-1.892,0.816,1.987-0.099-0.135c-0.593-1.375-0.898-2.857-1.081-4.337c-0.082-0.926-0.077-0.638,0.015,0.862
			c-0.024-0.514-0.011-1.028,0.001-1.542c0.021-0.919,0.126-1.834,0.244-2.745c0.272-2.095,0.82-4.147,1.445-6.161
			c-0.775,2.498,0.495-1.249,0.719-1.806c0.506-1.256,1.073-2.486,1.65-3.71c1.319-2.795,2.84-5.493,4.418-8.148
			c1.791-3.014,0.619-6.563-2.239-8.356c-4.508-2.826-11.295-2.145-15.854,0.171c-13.482,6.847-25.892,15.437-38.537,23.669
			c-5.647,3.678-10.703,6.779-16.621,9.738c-5.958,2.979-11.385,4.872-16.058,5.521c3.968,2.574,7.936,5.149,11.903,7.725
			c0.16-17.732,5.474-33.657,18.001-46.442c3.111-3.175,3.398-8.054-0.634-10.582c-5.63-3.53-13.623-1.585-18.77,1.847
			c-9.861,6.573-19.786,13.047-29.896,19.235c-3.079,1.886-6.178,3.737-9.291,5.565c-0.796,0.467-1.595,0.931-2.393,1.394
			c-2.776,1.61,2.488-1.421-0.31,0.174c-1.895,1.08-3.799,2.141-5.709,3.192c-6.723,3.703-13.56,7.203-20.536,10.406
			c-3.145,1.443-6.331,2.798-9.548,4.073c-0.771,0.306-1.545,0.599-2.32,0.892c-2.807,1.061,3.164-1.113,0.372-0.133
			c-1.704,0.599-3.425,1.143-5.156,1.658c-1.397,0.416-2.809,0.782-4.226,1.127c-0.676,0.164-1.357,0.31-2.037,0.453
			c-2.615,0.555,3.525-0.585,0.941-0.155c-1.242,0.206-2.493,0.346-3.747,0.452c-0.591,0.051-1.184,0.074-1.777,0.097
			c-2.213,0.085,3.691,0.12,0.555-0.048c-1.13-0.06-4.892-0.866-0.575,0.075c-0.933-0.203-1.835-0.517-2.717-0.879
			c3.483,1.429,0.662,0.196-0.22-0.451c-1.42-1.044,1.778,1.69,0.53,0.44c-0.426-0.427-0.792-0.909-1.147-1.395
			c-1.67-2.286,0.333,1.186-0.498-0.901c-0.399-1.003-0.644-2.063-0.853-3.118c-0.115-0.583-0.182-1.174-0.25-1.764
			c-0.25-2.146,0.028,2.025-0.024-0.243c-0.04-1.71,0.104-3.422,0.289-5.119c0.828-7.632,3.273-14.83,5.951-21.719
			c4.707-12.107-15.016-11.639-21.008-6.51c-13.342,11.419-27.23,22.228-41.843,31.979c-9.532,6.361-14.746,9.496-24.698,14.272
			c-2.088,1.002-4.21,1.932-6.346,2.828c-1.037,0.436-2.085,0.842-3.133,1.247c-3.488,1.35,2.771-0.938-0.71,0.24
			c-1.987,0.673-4.006,1.24-6.038,1.759c-0.974,0.248-1.957,0.455-2.94,0.659c3.895-0.812-0.37,0.008-1.189,0.106
			c-0.918,0.11-1.841,0.168-2.764,0.223c-3.129,0.188,2.865,0.104-0.202,0.012c-0.982-0.03-6.105-0.936-2.856-0.209
			c-0.875-0.196-5.223-1.961-2.815-0.801c-1.709-0.823-3.252-1.944-4.697-3.163c-5.554-4.685-8.518-11.493-9.325-19.707
			c-1.546-15.748,8.87-35.258,17.912-46.938c1.752-2.264,3.626-4.432,5.559-6.543c0.919-1.004,1.876-1.973,2.839-2.935
			c0.497-0.496,4.218-3.857,1.957-1.913c1.975-1.698,4.078-3.241,6.272-4.644c2.024-1.295-2.768,1.41,0.417-0.184
			c0.425-0.206,0.854-0.401,1.289-0.586c2.446-1.074-3.38,1.091-0.926,0.345c-5.118-1.586-10.237-3.172-15.355-4.759
			c1.106,2.291,1.878,4.658,2.326,7.162c0.11,0.615,0.175,1.237,0.24,1.858c0.228,2.161-0.03-1.997-0.003,0.188
			c0.019,1.505-0.132,3.008-0.337,4.496c-0.184,1.329-0.486,2.639-0.818,3.937c-0.172,0.671-0.378,1.333-0.584,1.994
			c0.743-2.386,0.001-0.078-0.162,0.348c-1.182,3.085-2.74,6.02-4.429,8.853c-0.841,1.412-1.754,2.78-2.684,4.136
			c-1.612,2.35,1.336-1.783-0.393,0.54c-0.522,0.701-1.064,1.389-1.604,2.076c-2.472,3.143-5.16,6.11-7.931,8.987
			c-2.749,2.854-5.643,5.564-8.598,8.203c-2.541,2.27,1.82-1.542-0.796,0.691c-0.794,0.678-1.599,1.343-2.404,2.009
			c-1.914,1.581-3.869,3.112-5.837,4.626c-7.347,5.646-15.076,10.79-22.999,15.59c-0.975,0.59-1.956,1.168-2.938,1.746
			c-3.269,1.926,2.257-1.271-1.048,0.605c-1.993,1.131-4.007,2.226-6.027,3.308c-4.374,2.343-8.823,4.546-13.314,6.654
			c-4.099,1.926-8.256,3.724-12.447,5.438c-2.063,0.845-4.142,1.647-6.227,2.437c-0.535,0.202-4.056,1.47-0.725,0.28
			c-1.368,0.488-2.743,0.954-4.12,1.417c-4.023,1.352-8.093,2.557-12.192,3.654c-1.978,0.529-3.968,1.009-5.963,1.469
			c-0.977,0.226-1.958,0.434-2.939,0.641c-0.772,0.163-5.254,0.992-1.255,0.283c-3.692,0.654-7.416,1.122-11.151,1.439
			c-1.766,0.149-3.536,0.232-5.307,0.288c-0.741,0.023-3.777-0.012-0.062,0.018c-1.109-0.009-2.218-0.058-3.326-0.113
			c-1.602-0.081-3.199-0.243-4.791-0.438c-0.77-0.094-1.536-0.217-2.301-0.341c-2.677-0.435,2.651,0.57,0.042-0.005
			c-4.306-0.948-8.53-2.43-12.633-4.024c-1.013-0.394-2.011-0.823-3.009-1.253c1.818,0.783-1.28-0.648-1.314-0.665
			c-1.816-0.896-3.579-1.895-5.317-2.932c-1.664-0.993-3.265-2.086-4.839-3.215c-0.765-0.548-1.505-1.129-2.245-1.709
			c-0.483-0.386-0.961-0.777-1.433-1.177c0.697,0.621,0.63,0.556-0.201-0.195c-2.623-2.392-4.973-5.066-7.12-7.887
			c-1.049-1.378-2.003-2.824-2.924-4.289c-1.084-1.724-2.026-3.583-2.211-3.97c-13.695-28.663-4.133-64.059,7.045-91.82
			c6.707-16.657,15.111-32.632,24.549-47.894c2.149-3.475,4.376-6.901,6.65-10.294c1.102-1.645,2.226-3.274,3.358-4.898
			c0.556-0.797,1.119-1.588,1.682-2.38c0.722-1.008,0.747-1.044,0.076-0.107c0.372-0.51,0.745-1.02,1.119-1.527
			c4.318-5.874,8.878-11.574,13.701-17.041c6.077-6.89,12.668-13.571,19.163-20.077c2.468-2.473,4.992-4.89,7.555-7.265
			c1.396-1.294,2.814-2.563,4.242-3.822c-2.149,1.895,0.317-0.26,0.637-0.531c0.995-0.844,2.006-1.668,3.02-2.49
			c2.982-2.415,6.072-4.695,9.262-6.828c0.824-0.551,5.861-3.493,2.451-1.588c1.678-0.938,3.417-1.759,5.189-2.5
			c2.665-1.114-3.237,1.064-0.572,0.216c0.675-0.215,1.364-0.377,2.054-0.537c-4.194,0.971-2.075,0.357-0.954,0.251
			c2.451-0.232-3.285-0.152-0.901,0.023c2.266,0.167-2.868-0.736-0.725-0.125c2.035,0.581-2.274-1.228-0.425-0.193
			c0.583,0.327,1.928,1.614-0.001-0.181c0.591,0.55,1.072,1.214,1.543,1.864c0.347,0.478,0.642,0.991,0.937,1.502
			c-1.235-2.14-0.256-0.438-0.036,0.09c0.479,1.152,0.795,2.366,1.068,3.58c0.292,1.297,0.432,2.626,0.537,3.95
			c-0.181-2.278-0.041,0.106-0.041,0.497c0,0.99-0.064,1.979-0.133,2.965c-1.115,16.004-7.958,29.43-15.38,43.944
			c-8.495,16.611-18.433,32.481-28.78,47.989c-4.346,6.513-8.805,12.95-13.329,19.34c-1.719,2.428-3.451,4.846-5.188,7.261
			c-1.383,1.921,1.441-1.997,0.115-0.159c-0.343,0.475-0.686,0.949-1.029,1.424c-0.694,0.96-1.389,1.92-2.082,2.881
			c-0.622,0.861-1.243,1.723-1.864,2.584c-1.079,1.497,1.793-2.461,0.185-0.267c-0.998,1.362-2.032,2.696-3.074,4.024
			c-2.142,2.731-4.378,5.389-6.643,8.019c-5.641,6.551-11.587,12.837-17.631,19.016c-14.536,14.862-29.849,28.966-45.465,42.682
			c-32.599,28.632-67.334,56.053-104.142,79.371c-4.416,2.797-7.001,9.251-1.678,12.589C8.698,326.208,16.496,324.105,21.75,320.776
			L21.75,320.776z"/>
	</g>
</g>
<g>
	<path d="M488.518,138.342c-10.2,0-3.4-3.4,3.4-6.8"/>
	<g>
		<path fill="#443F3C" d="M496.967,132.718c-0.858-0.005-1.712-0.028-2.567-0.099c-1.479-0.122,2.405,0.425,1.1,0.178
			c-0.281-0.053-0.552-0.139-0.817-0.245c0.536,0.235,1.072,0.47,1.608,0.705c-0.214-0.104-0.393-0.211-0.536-0.403
			c0.262,0.351,0.523,0.702,0.785,1.053c-0.069-0.135-0.09-0.241-0.078-0.393c-0.051,0.435-0.103,0.87-0.153,1.305
			c0.04-0.169,0.108-0.303,0.202-0.449c-0.348,0.472-0.694,0.943-1.041,1.415c0.1-0.131,0.203-0.25,0.316-0.37
			c1.048-1.097-2.025,1.537-1.009,0.777c0.594-0.443,1.238-0.82,1.877-1.191c-4.032,2.343-0.764,0.463,0.241-0.055
			c0.889-0.458,1.785-0.904,2.68-1.352c1.836-0.918,4.418-2.243,5.327-4.268c0.769-1.713-0.842-2.689-2.24-3.062
			c-2.679-0.716-5.715-0.393-8.396,0.065c-3.426,0.585-6.886,1.601-10.003,3.16c-1.719,0.859-3.44,1.716-5.118,2.655
			c-2.532,1.418-5.33,2.868-7.364,4.999c-1.375,1.441-2.606,3.829-0.342,5.187c2.527,1.515,5.767,1.62,8.631,1.636
			c6.361,0.036,13.206-1.401,18.578-4.978c1.126-0.749,3.48-2.401,3.008-4.167C501.196,133.11,498.298,132.725,496.967,132.718
			L496.967,132.718z"/>
	</g>
</g>
</svg>
